<svg width="32" height="32" xmlns="http://www.w3.org/2000/svg">
 <title/>

 <g>
  <title>background</title>
  <rect fill="none" id="canvas_background" height="34" width="34" y="-1" x="-1"/>
 </g>
 <g>
  <title>Layer 1</title>
  <path id="Rectangle 1 copy 4" d="m16,26c2.41895,0 4.4367,-1.71775 4.89998,-4l2.02913,0c-0.48522,3.39229 -3.40264,6 -6.92911,6c-2.44447,0 -4.59629,-1.25299 -5.84824,-3.15176l-1.15176,1.15176l0,-1l0,-2l0,-1l0.07089,0l2.02913,0l1.89998,0l-1.39186,1.39186c0.8481,1.55395 2.49687,2.60814 4.39186,2.60814zm4.89998,-6l-0.89998,0l-1,0l1.39187,-1.39184c-0.84807,-1.55394 -2.49686,-2.60816 -4.39187,-2.60816c-2.41895,0 -4.4367,1.71775 -4.89998,4l-2.02913,0c0.48522,-3.39229 3.40264,-6 6.92911,-6c2.44449,0 4.59632,1.25301 5.84827,3.1518l1.15173,-1.1517l0,3.9999l-0.07089,0l-2.02913,0zm-20.89998,-1c0,-2.21716 1.20754,-4.15836 3.00211,-5.19701c0.1048,-4.87959 4.09316,-8.80299 8.99789,-8.80299c3.2335,0 6.06872,1.70521 7.65547,4.26543c0.58474,-0.17273 1.20381,-0.26543 1.84453,-0.26543c2.78455,0 5.16015,1.75095 6.08584,4.2119c2.54386,0.69555 4.41416,3.02347 4.41416,5.7881c0,3.30697 -2.68637,6 -6.00018,6l-1.93534,0c0.31234,-0.62851 0.55337,-1.2987 0.7125,-2l1.22618,0c2.20739,0 3.99684,-1.79536 3.99684,-4c0,-2.20914 -1.79412,-4 -3.99684,-4l-0.03062,0c-0.24874,-2.24998 -2.15627,-4 -4.47254,-4c-1.05725,0 -2.02934,0.3646 -2.79739,0.97492c-0.86854,-2.87859 -3.54076,-4.97492 -6.70261,-4.97492c-3.86599,0 -7,3.13401 -7,7c0,0.37579 0.02961,0.74467 0.08663,1.10442c-1.76884,0.41316 -3.08663,2.00366 -3.08663,3.89558c0,2.20914 1.79412,4 3.99684,4l1.00316,0l0,2l-0.99982,0c-3.3132,0 -6.00018,-2.68629 -6.00018,-6zm0,0"/>
 </g>
</svg>